<svg width="160" height="31" xmlns="http://www.w3.org/2000/svg" fill="none">

 <g>
  <title>Layer 1</title>
  <path id="svg_1" stroke-linecap="round" stroke-miterlimit="10" stroke-width="1.28276" stroke="#0369A1" d="m8.12346,24.8618c1.47344,0 2.66794,-1.1944 2.66794,-2.6678c0,-1.4735 -1.1945,-2.668 -2.66794,-2.668c-1.47344,0 -2.66789,1.1945 -2.66789,2.668c0,1.4734 1.19445,2.6678 2.66789,2.6678z"/>
  <path id="svg_2" stroke-linecap="round" stroke-miterlimit="10" stroke-width="1.28276" stroke="#0369A1" d="m6.97607,9.18945l16.13853,0"/>
  <path id="svg_3" stroke-linecap="round" stroke-miterlimit="10" stroke-width="1.28276" stroke="#0369A1" d="m8.38892,12.4171l14.02028,0"/>
  <path id="svg_4" stroke-linecap="round" stroke-miterlimit="10" stroke-width="1.28276" stroke="#0369A1" d="m7.66113,19.525l10.45267,0c1.1448,0 2.1646,-0.7273 2.5367,-1.8106l4.308,-12.5335c0.3722,-1.08329 1.391,-1.81054 2.5368,-1.81054l3.1339,0"/>
  <path id="svg_5" stroke-linecap="round" stroke-miterlimit="10" stroke-width="1.06897" stroke="#0369A1" d="m8.12359,22.5791c0.2128,0 0.38531,-0.1725 0.38531,-0.3852c0,-0.2129 -0.17251,-0.3853 -0.38531,-0.3853c-0.2128,0 -0.38531,0.1724 -0.38531,0.3853c0,0.2127 0.17251,0.3852 0.38531,0.3852z"/>
  <path id="svg_6" stroke-linecap="round" stroke-miterlimit="10" stroke-width="1.28276" stroke="#0369A1" d="m17.8222,24.8618c1.4734,0 2.6678,-1.1944 2.6678,-2.6678c0,-1.4735 -1.1944,-2.668 -2.6678,-2.668c-1.4735,0 -2.6679,1.1945 -2.6679,2.668c0,1.4734 1.1944,2.6678 2.6679,2.6678z"/>
  <path id="svg_7" stroke-linecap="round" stroke-miterlimit="10" stroke-width="1.06897" stroke="#0369A1" d="m17.8223,22.5791c0.2127,0 0.3853,-0.1725 0.3853,-0.3853c0,-0.2128 -0.1726,-0.3853 -0.3853,-0.3853c-0.2128,0 -0.3853,0.1725 -0.3853,0.3853c0,0.2128 0.1725,0.3853 0.3853,0.3853z"/>
  <path id="svg_8" stroke-linecap="round" stroke-miterlimit="10" stroke-width="1.28276" stroke="#0369A1" d="m21.1874,16.152l-14.03949,0c-0.47003,0 -0.88256,-0.3259 -1.01167,-0.8001l-2.38143,-8.72311c-0.11903,-0.43498 0.19264,-0.8689 0.62435,-0.8689l17.99844,0"/>
  <path id="svg_9" stroke-linecap="round" stroke-miterlimit="10" stroke-width="1.28276" stroke="#0369A1" d="m1,26.527c0,0 10.26,-3.4718 24.1058,0"/>
  <path id="svg_10" fill="#ffffff" d="m36.5269,25l0,-18.65836l12.3538,0l0,3.25245l-8.409,0l0,4.44591l7.5891,0l0,3.2525l-7.5891,0l0,7.7075l-3.9448,0z"/>
  <path id="svg_11" fill="#ffffff" d="m50.4661,25l0,-13.9938l3.7626,0l0,2.4416l0.1458,0c0.2551,-0.8685 0.6833,-1.5245 1.2846,-1.9678c0.6013,-0.4495 1.2937,-0.6742 2.0772,-0.6742c0.1943,0 0.4039,0.0121 0.6286,0.0364c0.2247,0.0243 0.4221,0.0577 0.5922,0.1002l0,3.4438c-0.1822,-0.0546 -0.4343,-0.1032 -0.7562,-0.1458c-0.3219,-0.0425 -0.6165,-0.0637 -0.8837,-0.0637c-0.5709,0 -1.0811,0.1245 -1.5306,0.3735c-0.4433,0.243 -0.7956,0.5831 -1.0568,1.0204c-0.2551,0.4373 -0.3826,0.9414 -0.3826,1.5123l0,7.9171l-3.8811,0z"/>
  <path id="svg_12" fill="#ffffff" d="m65.92,25.2733c-1.4395,0 -2.6785,-0.2916 -3.7171,-0.8746c-1.0325,-0.5892 -1.8282,-1.4213 -2.387,-2.4963c-0.5587,-1.0811 -0.8381,-2.3596 -0.8381,-3.8355c0,-1.4395 0.2794,-2.7028 0.8381,-3.79c0.5588,-1.0872 1.3454,-1.9345 2.3597,-2.5418c1.0203,-0.6074 2.2168,-0.9111 3.5895,-0.9111c0.9232,0 1.7826,0.1488 2.5783,0.4464c0.8017,0.2916 1.5002,0.7319 2.0954,1.321c0.6013,0.5892 1.069,1.3302 1.403,2.223c0.3341,0.8868 0.5011,1.9254 0.5011,3.1158l0,1.0659l-11.8163,0l0,-2.4051l8.163,0c0,-0.5588 -0.1215,-1.0538 -0.3645,-1.4851c-0.2429,-0.4312 -0.58,-0.7683 -1.0112,-1.0112c-0.4252,-0.249 -0.9202,-0.3736 -1.485,-0.3736c-0.5892,0 -1.1115,0.1367 -1.567,0.41c-0.4495,0.2673 -0.8018,0.6286 -1.0569,1.0842c-0.255,0.4494 -0.3856,0.9505 -0.3917,1.5032l0,2.2867c0,0.6924 0.1275,1.2907 0.3826,1.7948c0.2612,0.5041 0.6287,0.8928 1.1024,1.1662c0.4738,0.2733 1.0356,0.4099 1.6854,0.4099c0.4313,0 0.8261,-0.0607 1.1844,-0.1822c0.3584,-0.1215 0.6651,-0.3037 0.9202,-0.5466c0.2551,-0.243 0.4494,-0.5406 0.583,-0.8928l3.5896,0.2368c-0.1822,0.8625 -0.5558,1.6156 -1.1206,2.2594c-0.5588,0.6378 -1.2815,1.1358 -2.1683,1.4942c-0.8807,0.3522 -1.898,0.5284 -3.052,0.5284z"/>
  <path id="svg_13" fill="#ffffff" d="m85.7492,14.9966l-3.5531,0.2187c-0.0608,-0.3037 -0.1913,-0.577 -0.3918,-0.82c-0.2004,-0.249 -0.4646,-0.4464 -0.7926,-0.5922c-0.3219,-0.1518 -0.7076,-0.2277 -1.157,-0.2277c-0.6013,0 -1.1085,0.1275 -1.5215,0.3826c-0.413,0.249 -0.6195,0.5831 -0.6195,1.0022c0,0.334 0.1336,0.6165 0.4009,0.8473c0.2672,0.2308 0.7258,0.416 1.3757,0.5557l2.5327,0.5102c1.3605,0.2794 2.3748,0.7288 3.0429,1.3483c0.6681,0.6196 1.0021,1.4334 1.0021,2.4417c0,0.9171 -0.2702,1.7218 -0.8108,2.4142c-0.5345,0.6924 -1.2694,1.233 -2.2047,1.6217c-0.9293,0.3826 -2.0013,0.574 -3.216,0.574c-1.8525,0 -3.3284,-0.3857 -4.4278,-1.1571c-1.0932,-0.7774 -1.734,-1.8342 -1.9223,-3.1704l3.8173,-0.2005c0.1154,0.5649 0.3948,0.9961 0.8382,1.2937c0.4434,0.2916 1.0113,0.4373 1.7037,0.4373c0.6802,0 1.2268,-0.1305 1.6399,-0.3917c0.419,-0.2673 0.6316,-0.6104 0.6377,-1.0295c-0.0061,-0.3523 -0.1549,-0.6408 -0.4464,-0.8655c-0.2916,-0.2308 -0.741,-0.4069 -1.3484,-0.5284l-2.4234,-0.4829c-1.3665,-0.2733 -2.3839,-0.747 -3.052,-1.4212c-0.662,-0.6742 -0.993,-1.5336 -0.993,-2.5783c0,-0.8989 0.2429,-1.6733 0.7288,-2.3231c0.492,-0.6499 1.1813,-1.151 2.0681,-1.5033c0.8928,-0.3523 1.9375,-0.5284 3.134,-0.5284c1.7674,0 3.1583,0.3735 4.1726,1.1206c1.0204,0.7471 1.6156,1.7644 1.7857,3.052z"/>
  <path id="svg_14" fill="#ffffff" d="m91.6233,16.9098l0,8.0902l-3.881,0l0,-18.65836l3.7717,0l0,7.13356l0.164,0c0.3158,-0.8261 0.826,-1.4729 1.5306,-1.9406c0.7045,-0.4737 1.5882,-0.7106 2.6511,-0.7106c0.9718,0 1.8191,0.2126 2.5419,0.6377c0.7288,0.4191 1.2936,1.0235 1.6944,1.813c0.407,0.7835 0.607,1.7219 0.601,2.8152l0,8.9101l-3.8807,0l0,-8.2177c0.0061,-0.8625 -0.2125,-1.5336 -0.6559,-2.0134c-0.4373,-0.4799 -1.0508,-0.7198 -1.8403,-0.7198c-0.5285,0 -0.9961,0.1124 -1.4031,0.3371c-0.4008,0.2247 -0.7167,0.5527 -0.9475,0.9839c-0.2247,0.4252 -0.3401,0.9384 -0.3462,1.5397z"/>
  <path id="svg_15" fill="#ffffff" d="m119.518,12.8739l-3.991,0c-0.073,-0.5163 -0.221,-0.9749 -0.446,-1.3757c-0.225,-0.4069 -0.513,-0.7531 -0.866,-1.0386c-0.352,-0.2855 -0.759,-0.50413 -1.221,-0.65597c-0.455,-0.15184 -0.95,-0.22776 -1.485,-0.22776c-0.965,0 -1.806,0.23991 -2.523,0.71973c-0.717,0.4737 -1.273,1.1661 -1.667,2.0772c-0.395,0.905 -0.593,2.0043 -0.593,3.298c0,1.3301 0.198,2.4477 0.593,3.3527c0.401,0.9049 0.959,1.5882 1.676,2.0498c0.717,0.4616 1.546,0.6924 2.487,0.6924c0.529,0 1.017,-0.0698 1.467,-0.2095c0.455,-0.1397 0.859,-0.3432 1.212,-0.6104c0.352,-0.2733 0.643,-0.6044 0.874,-0.9931c0.237,-0.3887 0.401,-0.8321 0.492,-1.3301l3.991,0.0182c-0.104,0.8564 -0.362,1.6824 -0.775,2.4781c-0.407,0.7896 -0.956,1.4971 -1.649,2.1227c-0.686,0.6195 -1.506,1.1115 -2.46,1.4759c-0.947,0.3584 -2.019,0.5375 -3.216,0.5375c-1.664,0 -3.152,-0.3765 -4.464,-1.1297c-1.306,-0.7531 -2.338,-1.8433 -3.097,-3.2706c-0.753,-1.4273 -1.13,-3.1553 -1.13,-5.1839c0,-2.0347 0.383,-3.7657 1.148,-5.193c0.765,-1.4273 1.804,-2.51449 3.116,-3.26155c1.312,-0.75313 2.787,-1.1297 4.427,-1.1297c1.081,0 2.084,0.15184 3.007,0.45552c0.929,0.30369 1.752,0.74706 2.469,1.33014c0.716,0.57699 1.3,1.28458 1.749,2.12274c0.456,0.83815 0.747,1.79785 0.875,2.87895z"/>
  <path id="svg_16" fill="#ffffff" d="m125.494,25.2642c-0.893,0 -1.688,-0.1549 -2.387,-0.4647c-0.698,-0.3158 -1.251,-0.7804 -1.658,-1.3939c-0.401,-0.6195 -0.601,-1.3909 -0.601,-2.3141c0,-0.7774 0.143,-1.4303 0.428,-1.9587c0.286,-0.5284 0.674,-0.9536 1.166,-1.2755c0.492,-0.3219 1.051,-0.5648 1.677,-0.7288c0.631,-0.164 1.293,-0.2794 1.986,-0.3462c0.814,-0.0851 1.47,-0.164 1.968,-0.2369c0.498,-0.079 0.859,-0.1944 1.084,-0.3462c0.224,-0.1518 0.337,-0.3766 0.337,-0.6742l0,-0.0546c0,-0.577 -0.182,-1.0234 -0.547,-1.3393c-0.358,-0.3158 -0.868,-0.4737 -1.53,-0.4737c-0.699,0 -1.255,0.1549 -1.668,0.4646c-0.413,0.3037 -0.686,0.6863 -0.82,1.1479l-3.589,-0.2915c0.182,-0.8503 0.54,-1.5852 1.075,-2.2047c0.534,-0.6256 1.224,-1.1055 2.068,-1.4395c0.85,-0.3401 1.834,-0.5102 2.952,-0.5102c0.777,0 1.521,0.0911 2.232,0.2733c0.717,0.1822 1.351,0.4647 1.904,0.8473c0.559,0.3826 0.999,0.8746 1.321,1.4759c0.322,0.5952 0.483,1.3089 0.483,2.141l0,9.4385l-3.681,0l0,-1.9406l-0.109,0c-0.225,0.4373 -0.525,0.823 -0.902,1.157c-0.377,0.328 -0.829,0.5862 -1.358,0.7744c-0.528,0.1823 -1.138,0.2734 -1.831,0.2734zm1.112,-2.6785c0.571,0 1.075,-0.1124 1.512,-0.3371c0.437,-0.2308 0.781,-0.5406 1.03,-0.9293c0.249,-0.3887 0.373,-0.829 0.373,-1.321l0,-1.485c-0.121,0.0789 -0.288,0.1518 -0.501,0.2186c-0.206,0.0608 -0.44,0.1185 -0.701,0.1731c-0.262,0.0486 -0.523,0.0942 -0.784,0.1367c-0.261,0.0364 -0.498,0.0698 -0.711,0.1002c-0.455,0.0668 -0.853,0.1731 -1.193,0.3189c-0.34,0.1457 -0.604,0.3431 -0.793,0.5921c-0.188,0.243 -0.282,0.5467 -0.282,0.9111c0,0.5284 0.191,0.9323 0.574,1.2117c0.389,0.2733 0.881,0.41 1.476,0.41z"/>
  <path id="svg_17" fill="#ffffff" d="m135.616,25l0,-13.9938l3.763,0l0,2.4416l0.146,0c0.255,-0.8685 0.683,-1.5245 1.284,-1.9678c0.602,-0.4495 1.294,-0.6742 2.077,-0.6742c0.195,0 0.404,0.0121 0.629,0.0364c0.225,0.0243 0.422,0.0577 0.592,0.1002l0,3.4438c-0.182,-0.0546 -0.434,-0.1032 -0.756,-0.1458c-0.322,-0.0425 -0.616,-0.0637 -0.884,-0.0637c-0.571,0 -1.081,0.1245 -1.53,0.3735c-0.444,0.243 -0.796,0.5831 -1.057,1.0204c-0.255,0.4373 -0.383,0.9414 -0.383,1.5123l0,7.9171l-3.881,0z"/>
  <path id="svg_18" fill="#ffffff" d="m153.489,11.0062l0,2.9154l-8.427,0l0,-2.9154l8.427,0zm-6.514,-3.35265l3.881,0l0,13.04625c0,0.3583 0.055,0.6377 0.164,0.8382c0.109,0.1943 0.261,0.331 0.456,0.4099c0.2,0.079 0.431,0.1185 0.692,0.1185c0.182,0 0.364,-0.0152 0.547,-0.0456c0.182,-0.0364 0.321,-0.0638 0.419,-0.082l0.61,2.8881c-0.194,0.0607 -0.468,0.1305 -0.82,0.2095c-0.352,0.085 -0.78,0.1366 -1.284,0.1549c-0.936,0.0364 -1.756,-0.0881 -2.46,-0.3736c-0.699,-0.2854 -1.242,-0.7288 -1.631,-1.3301c-0.389,-0.6013 -0.58,-1.3605 -0.574,-2.2776l0,-13.55645z"/>
 </g>
</svg>